<?xml version="1.0" standalone="no"?>
<!DOCTYPE svg PUBLIC "-//W3C//DTD SVG 20010904//EN"
 "http://www.w3.org/TR/2001/REC-SVG-20010904/DTD/svg10.dtd">
<svg version="1.0" xmlns="http://www.w3.org/2000/svg"
 width="700.000000pt" height="700.000000pt" viewBox="0 0 700.000000 700.000000"
 preserveAspectRatio="xMidYMid meet">
<metadata>
Created by potrace 1.11, written by Peter Selinger 2001-2013
</metadata>
<g transform="translate(0.000000,700.000000) scale(0.100000,-0.100000)"
fill="#000000" stroke="none">
<path d="M2535 4290 l-978 -978 -186 233 c-102 128 -199 250 -216 271 -63 79
-167 210 -194 244 -16 19 -76 96 -135 170 -59 74 -112 142 -119 150 -7 8 -64
80 -127 160 -63 80 -122 154 -132 165 -9 11 -46 58 -83 105 -37 47 -80 101
-95 120 -16 19 -60 76 -100 125 -79 101 -119 149 -149 185 l-21 25 5 -45 c5
-49 15 -157 21 -230 10 -122 15 -174 18 -203 3 -18 7 -66 11 -107 3 -41 8 -93
10 -115 2 -22 7 -74 11 -115 3 -41 7 -86 9 -100 3 -29 15 -166 20 -230 3 -25
7 -70 10 -100 9 -88 14 -140 20 -215 3 -38 8 -86 10 -105 2 -19 7 -71 11 -115
3 -44 8 -91 9 -105 1 -14 6 -59 9 -100 4 -41 9 -95 11 -120 3 -25 7 -72 10
-105 3 -33 7 -78 9 -100 2 -22 7 -76 11 -120 6 -76 9 -109 19 -207 5 -45 14
-148 22 -233 2 -27 6 -70 9 -95 2 -25 7 -76 10 -115 3 -38 8 -88 11 -110 4
-41 9 -95 19 -220 3 -38 8 -92 11 -120 4 -27 7 -61 8 -75 l2 -25 3146 -3
c2991 -2 3147 -1 3152 15 4 17 9 55 22 188 3 33 7 71 9 85 2 14 7 61 11 105 3
44 8 89 10 100 2 11 6 54 9 95 3 41 8 82 10 90 2 8 7 51 11 95 3 44 8 88 10
98 2 10 6 48 9 85 4 37 8 78 10 92 2 14 6 54 10 90 3 36 8 81 10 100 2 19 6
58 9 85 12 111 17 162 21 195 3 19 7 60 10 90 9 100 24 237 30 280 2 14 6 57
10 95 3 39 10 104 15 145 5 41 12 102 15 135 11 121 15 161 20 195 5 40 12
108 20 195 3 33 8 76 10 95 3 19 8 58 10 85 5 47 21 198 30 275 2 19 7 64 10
100 3 36 8 81 10 100 2 19 7 60 10 90 3 30 8 72 11 93 3 20 3 37 0 37 -5 0
-27 -23 -126 -130 -32 -34 -256 -273 -295 -314 -11 -12 -78 -84 -150 -161 -71
-77 -139 -149 -150 -161 -29 -30 -247 -262 -285 -304 -18 -19 -89 -95 -159
-169 -69 -74 -134 -143 -143 -153 -9 -11 -75 -81 -145 -156 -70 -75 -158 -168
-194 -207 -36 -38 -92 -97 -123 -130 l-57 -60 -32 36 c-18 19 -75 86 -127 148
-52 62 -107 127 -121 145 -211 249 -336 397 -358 421 -14 17 -48 57 -76 90
-27 33 -52 62 -55 65 -3 3 -38 43 -77 90 -96 115 -311 369 -360 426 -10 12
-59 71 -110 130 -139 165 -335 399 -337 401 -1 1 -442 -438 -981 -977z"/>
</g>
</svg>
